<?xml version="1.0" encoding="UTF-8"?>
<!DOCTYPE svg PUBLIC "-//W3C//DTD SVG 1.1//EN" "http://www.w3.org/Graphics/SVG/1.1/DTD/svg11.dtd">
<!-- Creator: CorelDRAW X6 -->
<svg xmlns="http://www.w3.org/2000/svg" xml:space="preserve" width="3.2167in" height="1.05293in" version="1.1" style="shape-rendering:geometricPrecision; text-rendering:geometricPrecision; image-rendering:optimizeQuality; fill-rule:evenodd; clip-rule:evenodd"
viewBox="0 0 2743 898"
 xmlns:xlink="http://www.w3.org/1999/xlink">
 <defs>
  <style type="text/css">
   <![CDATA[
    .fil0 {fill:white;fill-rule:nonzero;fill-opacity:0.800000}
   ]]>
  </style>
 </defs>
 <g id="Layer_x0020_1">
  <metadata id="CorelCorpID_0Corel-Layer"/>
  <path class="fil0" d="M0 11l165 0 0 490 -165 0 0 -490zm727 0l0 490 -135 0 -186 -223 0 223 -161 0 0 -490 135 0 186 223 0 -223 161 0zm263 501c-41,0 -81,-5 -119,-14 -38,-9 -70,-21 -95,-36l53 -121c24,14 50,25 79,33 29,8 56,12 83,12 23,0 39,-2 49,-7 10,-4 15,-11 15,-20 0,-10 -7,-17 -20,-23 -12,-5 -34,-10 -63,-16 -38,-8 -69,-17 -94,-26 -26,-9 -47,-24 -66,-45 -19,-20 -28,-49 -28,-84 0,-31 9,-59 26,-84 17,-25 43,-45 77,-59 34,-15 76,-22 125,-22 34,0 66,4 99,11 32,7 61,18 86,32l-50 119c-48,-24 -94,-36 -136,-36 -43,0 -64,10 -64,31 0,9 6,17 19,22 12,5 33,10 62,15 37,7 69,15 94,25 26,9 48,23 67,44 19,20 29,48 29,84 0,31 -9,58 -26,83 -18,25 -43,45 -78,60 -34,15 -75,22 -124,22zm511 0c-75,0 -134,-20 -176,-61 -42,-40 -63,-97 -63,-171l0 -269 165 0 0 265c0,35 7,62 20,78 12,16 31,24 55,24 24,0 43,-8 56,-24 13,-16 19,-43 19,-78l0 -265 162 0 0 269c0,74 -21,131 -63,171 -42,41 -100,61 -175,61zm524 -134l-45 0 0 123 -165 0 0 -490 235 0c46,0 85,8 119,23 33,14 59,36 77,64 18,28 28,61 28,98 0,35 -8,65 -24,91 -16,27 -39,47 -69,63l103 151 -176 0 -83 -123zm82 -182c0,-18 -6,-32 -17,-42 -11,-11 -28,-16 -50,-16l-60 0 0 115 60 0c22,0 39,-5 50,-15 11,-10 17,-24 17,-42zm636 180l0 125 -407 0 0 -490 398 0 0 125 -236 0 0 57 207 0 0 119 -207 0 0 64 245 0z"/>
  <path class="fil0" d="M93 658l-92 0 0 -82 291 0 0 82 -93 0 0 233 -106 0 0 -233zm387 240c-34,0 -65,-7 -92,-21 -27,-14 -48,-34 -63,-59 -15,-25 -23,-53 -23,-85 0,-31 8,-60 23,-85 15,-25 36,-44 63,-59 27,-14 58,-21 92,-21 34,0 64,7 91,21 27,15 48,34 64,59 15,25 22,54 22,85 0,32 -7,60 -22,85 -16,25 -37,45 -64,59 -27,14 -57,21 -91,21zm0 -86c13,0 25,-3 35,-10 11,-6 20,-15 26,-27 6,-12 9,-26 9,-42 0,-16 -3,-30 -9,-42 -6,-11 -15,-21 -26,-27 -10,-6 -22,-10 -35,-10 -14,0 -25,4 -36,10 -11,6 -19,16 -26,27 -6,12 -9,26 -9,42 0,16 3,30 9,42 7,12 15,21 26,27 11,7 22,10 36,10zm613 -2l0 81 -262 0 0 -315 256 0 0 80 -151 0 0 37 133 0 0 76 -133 0 0 41 157 0zm352 -234l0 315 -88 0 -119 -144 0 144 -104 0 0 -315 87 0 120 143 0 -143 104 0zm169 322c-27,0 -52,-3 -77,-9 -25,-6 -45,-14 -61,-24l34 -77c15,9 32,16 51,21 18,5 36,8 53,8 15,0 26,-2 32,-5 6,-2 9,-7 9,-12 0,-7 -4,-12 -12,-15 -8,-3 -22,-7 -41,-11 -24,-5 -44,-11 -60,-16 -17,-6 -31,-16 -43,-29 -12,-14 -18,-32 -18,-54 0,-20 6,-38 17,-54 11,-17 28,-29 50,-39 22,-9 48,-14 80,-14 22,0 43,3 64,7 21,5 39,12 55,21l-32 77c-31,-16 -60,-24 -88,-24 -27,0 -41,7 -41,20 0,6 4,11 12,14 8,3 22,7 40,10 24,5 45,10 61,16 17,6 31,15 43,29 12,13 18,31 18,54 0,19 -5,37 -16,53 -11,16 -28,29 -50,39 -22,9 -49,14 -80,14zm329 0c-49,0 -86,-13 -113,-39 -27,-26 -41,-63 -41,-110l0 -173 106 0 0 170c0,23 4,40 13,50 8,11 20,16 36,16 15,0 27,-5 35,-16 9,-10 13,-27 13,-50l0 -170 104 0 0 173c0,47 -13,84 -40,110 -27,26 -65,39 -113,39zm337 -87l-29 0 0 80 -106 0 0 -315 151 0c30,0 55,4 76,14 22,10 39,23 50,41 12,18 18,39 18,63 0,23 -5,42 -15,59 -11,17 -25,30 -44,40l66 98 -114 0 -53 -80zm53 -117c0,-11 -4,-20 -11,-27 -7,-6 -18,-10 -32,-10l-39 0 0 74 39 0c14,0 25,-3 32,-9 7,-7 11,-16 11,-28zm409 116l0 81 -262 0 0 -315 256 0 0 80 -152 0 0 37 134 0 0 76 -134 0 0 41 158 0z"/>
 </g>
</svg>
